<mxfile host="app.diagrams.net" agent="Mozilla/5.0 (X11; Linux x86_64) AppleWebKit/537.36 (KHTML, like Gecko) Chrome/131.0.0.0 Safari/537.36" version="25.0.3">
  <diagram id="KZoaR4bmj0K59AaIbh6e" name="第 1 页">
    <mxGraphModel dx="1430" dy="1944" grid="1" gridSize="10" guides="1" tooltips="1" connect="1" arrows="1" fold="1" page="1" pageScale="1" pageWidth="827" pageHeight="1169" math="0" shadow="0">
      <root>
        <mxCell id="0" />
        <mxCell id="1" parent="0" />
        <mxCell id="RDsM8FFO-aaUckPy7jzi-73" value="" style="rounded=1;whiteSpace=wrap;html=1;dashed=1;strokeWidth=2;" parent="1" vertex="1">
          <mxGeometry x="2100" y="655.62" width="250" height="428.75" as="geometry" />
        </mxCell>
        <mxCell id="RDsM8FFO-aaUckPy7jzi-61" value="" style="rounded=1;whiteSpace=wrap;html=1;dashed=1;strokeWidth=2;" parent="1" vertex="1">
          <mxGeometry x="1830" y="690" width="230" height="350" as="geometry" />
        </mxCell>
        <mxCell id="RDsM8FFO-aaUckPy7jzi-42" value="" style="rounded=1;whiteSpace=wrap;html=1;strokeWidth=2;dashed=1;" parent="1" vertex="1">
          <mxGeometry x="1490" y="640" width="300" height="450" as="geometry" />
        </mxCell>
        <mxCell id="RDsM8FFO-aaUckPy7jzi-25" value="" style="rounded=1;whiteSpace=wrap;html=1;strokeWidth=2;dashed=1;" parent="1" vertex="1">
          <mxGeometry x="1280" y="670" width="160" height="360" as="geometry" />
        </mxCell>
        <mxCell id="RDsM8FFO-aaUckPy7jzi-22" value="" style="rounded=1;whiteSpace=wrap;html=1;dashed=1;strokeWidth=2;" parent="1" vertex="1">
          <mxGeometry x="1080.5" y="710" width="160" height="280" as="geometry" />
        </mxCell>
        <mxCell id="Tc82Ai6gW2yXOLwtkJZm-1" value="" style="endArrow=classic;html=1;rounded=0;strokeWidth=3;" parent="1" edge="1">
          <mxGeometry width="50" height="50" relative="1" as="geometry">
            <mxPoint x="50" y="290" as="sourcePoint" />
            <mxPoint x="520.3809407552084" y="290" as="targetPoint" />
          </mxGeometry>
        </mxCell>
        <mxCell id="kuCcJDJ5Z3DSnVWMLu4O-2" value="" style="endArrow=none;html=1;rounded=0;strokeWidth=3;" parent="1" edge="1">
          <mxGeometry width="50" height="50" relative="1" as="geometry">
            <mxPoint x="70" y="290" as="sourcePoint" />
            <mxPoint x="70" y="280" as="targetPoint" />
          </mxGeometry>
        </mxCell>
        <mxCell id="kuCcJDJ5Z3DSnVWMLu4O-3" value="1978年&lt;div&gt;x86架构发布&lt;/div&gt;" style="text;html=1;align=center;verticalAlign=middle;resizable=0;points=[];autosize=1;strokeColor=none;fillColor=none;strokeWidth=3;" parent="1" vertex="1">
          <mxGeometry x="25" y="235" width="90" height="40" as="geometry" />
        </mxCell>
        <mxCell id="kuCcJDJ5Z3DSnVWMLu4O-4" value="" style="endArrow=none;html=1;rounded=0;strokeWidth=3;" parent="1" edge="1">
          <mxGeometry width="50" height="50" relative="1" as="geometry">
            <mxPoint x="170" y="300" as="sourcePoint" />
            <mxPoint x="170" y="290" as="targetPoint" />
          </mxGeometry>
        </mxCell>
        <mxCell id="kuCcJDJ5Z3DSnVWMLu4O-5" value="同年&lt;div&gt;arm架构发布&lt;/div&gt;" style="text;html=1;align=center;verticalAlign=middle;resizable=0;points=[];autosize=1;strokeColor=none;fillColor=none;strokeWidth=3;" parent="1" vertex="1">
          <mxGeometry x="130" y="300" width="90" height="40" as="geometry" />
        </mxCell>
        <mxCell id="kuCcJDJ5Z3DSnVWMLu4O-6" value="" style="endArrow=none;html=1;rounded=0;strokeWidth=3;" parent="1" edge="1">
          <mxGeometry width="50" height="50" relative="1" as="geometry">
            <mxPoint x="170" y="290" as="sourcePoint" />
            <mxPoint x="170" y="280" as="targetPoint" />
          </mxGeometry>
        </mxCell>
        <mxCell id="kuCcJDJ5Z3DSnVWMLu4O-7" value="1985年&lt;div&gt;mips架构发布&lt;/div&gt;" style="text;html=1;align=center;verticalAlign=middle;resizable=0;points=[];autosize=1;strokeColor=none;fillColor=none;strokeWidth=3;" parent="1" vertex="1">
          <mxGeometry x="120" y="235" width="100" height="40" as="geometry" />
        </mxCell>
        <mxCell id="kuCcJDJ5Z3DSnVWMLu4O-8" value="" style="endArrow=none;html=1;rounded=0;strokeWidth=3;" parent="1" edge="1">
          <mxGeometry width="50" height="50" relative="1" as="geometry">
            <mxPoint x="360" y="290" as="sourcePoint" />
            <mxPoint x="360" y="280" as="targetPoint" />
          </mxGeometry>
        </mxCell>
        <mxCell id="kuCcJDJ5Z3DSnVWMLu4O-9" value="2014年&lt;div&gt;riscv架构发布&lt;/div&gt;" style="text;html=1;align=center;verticalAlign=middle;resizable=0;points=[];autosize=1;strokeColor=none;fillColor=none;strokeWidth=3;" parent="1" vertex="1">
          <mxGeometry x="310" y="235" width="100" height="40" as="geometry" />
        </mxCell>
        <mxCell id="kuCcJDJ5Z3DSnVWMLu4O-10" value="" style="endArrow=none;html=1;rounded=0;strokeWidth=3;" parent="1" edge="1">
          <mxGeometry width="50" height="50" relative="1" as="geometry">
            <mxPoint x="480" y="300" as="sourcePoint" />
            <mxPoint x="480" y="290" as="targetPoint" />
          </mxGeometry>
        </mxCell>
        <mxCell id="kuCcJDJ5Z3DSnVWMLu4O-11" value="2021年&lt;div&gt;国产架构loongarch发布&lt;/div&gt;" style="text;html=1;align=center;verticalAlign=middle;resizable=0;points=[];autosize=1;strokeColor=none;fillColor=none;strokeWidth=3;" parent="1" vertex="1">
          <mxGeometry x="395" y="300" width="150" height="40" as="geometry" />
        </mxCell>
        <mxCell id="kuCcJDJ5Z3DSnVWMLu4O-16" style="edgeStyle=orthogonalEdgeStyle;rounded=0;orthogonalLoop=1;jettySize=auto;html=1;exitX=0.5;exitY=1;exitDx=0;exitDy=0;entryX=0.5;entryY=0;entryDx=0;entryDy=0;" parent="1" source="kuCcJDJ5Z3DSnVWMLu4O-12" target="kuCcJDJ5Z3DSnVWMLu4O-15" edge="1">
          <mxGeometry relative="1" as="geometry" />
        </mxCell>
        <mxCell id="kuCcJDJ5Z3DSnVWMLu4O-12" value="java代码" style="rounded=0;whiteSpace=wrap;html=1;" parent="1" vertex="1">
          <mxGeometry x="160" y="400" width="120" height="60" as="geometry" />
        </mxCell>
        <mxCell id="kuCcJDJ5Z3DSnVWMLu4O-21" style="edgeStyle=orthogonalEdgeStyle;rounded=0;orthogonalLoop=1;jettySize=auto;html=1;exitX=0.5;exitY=1;exitDx=0;exitDy=0;" parent="1" source="kuCcJDJ5Z3DSnVWMLu4O-15" target="kuCcJDJ5Z3DSnVWMLu4O-17" edge="1">
          <mxGeometry relative="1" as="geometry" />
        </mxCell>
        <mxCell id="kuCcJDJ5Z3DSnVWMLu4O-15" value="dex字节码" style="rounded=0;whiteSpace=wrap;html=1;" parent="1" vertex="1">
          <mxGeometry x="160" y="500" width="120" height="60" as="geometry" />
        </mxCell>
        <mxCell id="kuCcJDJ5Z3DSnVWMLu4O-22" style="edgeStyle=orthogonalEdgeStyle;rounded=0;orthogonalLoop=1;jettySize=auto;html=1;exitX=0.5;exitY=1;exitDx=0;exitDy=0;" parent="1" source="kuCcJDJ5Z3DSnVWMLu4O-17" edge="1">
          <mxGeometry relative="1" as="geometry">
            <mxPoint x="220" y="590" as="targetPoint" />
          </mxGeometry>
        </mxCell>
        <mxCell id="kuCcJDJ5Z3DSnVWMLu4O-24" value="while&lt;div&gt;loop&lt;/div&gt;" style="edgeLabel;html=1;align=center;verticalAlign=middle;resizable=0;points=[];" parent="kuCcJDJ5Z3DSnVWMLu4O-22" vertex="1" connectable="0">
          <mxGeometry x="0.107" relative="1" as="geometry">
            <mxPoint as="offset" />
          </mxGeometry>
        </mxCell>
        <mxCell id="kuCcJDJ5Z3DSnVWMLu4O-23" style="edgeStyle=orthogonalEdgeStyle;rounded=0;orthogonalLoop=1;jettySize=auto;html=1;exitX=0.5;exitY=1;exitDx=0;exitDy=0;entryX=0.5;entryY=0;entryDx=0;entryDy=0;" parent="1" source="kuCcJDJ5Z3DSnVWMLu4O-17" target="kuCcJDJ5Z3DSnVWMLu4O-20" edge="1">
          <mxGeometry relative="1" as="geometry" />
        </mxCell>
        <mxCell id="kuCcJDJ5Z3DSnVWMLu4O-17" value="art解释器" style="rounded=1;whiteSpace=wrap;html=1;fillColor=#fff2cc;strokeColor=#d6b656;" parent="1" vertex="1">
          <mxGeometry x="160" y="610" width="120" height="60" as="geometry" />
        </mxCell>
        <mxCell id="kuCcJDJ5Z3DSnVWMLu4O-20" value="cpu" style="shape=ext;double=1;rounded=0;whiteSpace=wrap;html=1;fillColor=#ffe6cc;strokeColor=#d79b00;" parent="1" vertex="1">
          <mxGeometry x="182.5" y="720" width="75" height="50" as="geometry" />
        </mxCell>
        <mxCell id="chNMWuW00oCalH_OXdsF-9" style="edgeStyle=orthogonalEdgeStyle;rounded=0;orthogonalLoop=1;jettySize=auto;html=1;exitX=0.5;exitY=1;exitDx=0;exitDy=0;entryX=0.5;entryY=0;entryDx=0;entryDy=0;" parent="1" source="chNMWuW00oCalH_OXdsF-1" target="chNMWuW00oCalH_OXdsF-2" edge="1">
          <mxGeometry relative="1" as="geometry" />
        </mxCell>
        <mxCell id="chNMWuW00oCalH_OXdsF-1" value="java代码" style="rounded=0;whiteSpace=wrap;html=1;" parent="1" vertex="1">
          <mxGeometry x="520" y="450" width="120" height="60" as="geometry" />
        </mxCell>
        <mxCell id="chNMWuW00oCalH_OXdsF-10" style="edgeStyle=orthogonalEdgeStyle;rounded=0;orthogonalLoop=1;jettySize=auto;html=1;exitX=0.5;exitY=1;exitDx=0;exitDy=0;entryX=0.5;entryY=0;entryDx=0;entryDy=0;" parent="1" source="chNMWuW00oCalH_OXdsF-2" target="chNMWuW00oCalH_OXdsF-3" edge="1">
          <mxGeometry relative="1" as="geometry" />
        </mxCell>
        <mxCell id="chNMWuW00oCalH_OXdsF-11" style="edgeStyle=orthogonalEdgeStyle;rounded=0;orthogonalLoop=1;jettySize=auto;html=1;exitX=0.5;exitY=1;exitDx=0;exitDy=0;entryX=0.5;entryY=0;entryDx=0;entryDy=0;" parent="1" source="chNMWuW00oCalH_OXdsF-2" target="chNMWuW00oCalH_OXdsF-4" edge="1">
          <mxGeometry relative="1" as="geometry" />
        </mxCell>
        <mxCell id="chNMWuW00oCalH_OXdsF-2" value="dex字节码" style="rounded=0;whiteSpace=wrap;html=1;" parent="1" vertex="1">
          <mxGeometry x="520" y="550" width="120" height="60" as="geometry" />
        </mxCell>
        <mxCell id="chNMWuW00oCalH_OXdsF-12" style="edgeStyle=orthogonalEdgeStyle;rounded=0;orthogonalLoop=1;jettySize=auto;html=1;exitX=1;exitY=0.5;exitDx=0;exitDy=0;entryX=0;entryY=0.5;entryDx=0;entryDy=0;" parent="1" source="chNMWuW00oCalH_OXdsF-3" target="chNMWuW00oCalH_OXdsF-4" edge="1">
          <mxGeometry relative="1" as="geometry" />
        </mxCell>
        <mxCell id="chNMWuW00oCalH_OXdsF-13" style="edgeStyle=orthogonalEdgeStyle;rounded=0;orthogonalLoop=1;jettySize=auto;html=1;exitX=0.5;exitY=1;exitDx=0;exitDy=0;entryX=0.5;entryY=0;entryDx=0;entryDy=0;" parent="1" source="chNMWuW00oCalH_OXdsF-3" target="chNMWuW00oCalH_OXdsF-6" edge="1">
          <mxGeometry relative="1" as="geometry" />
        </mxCell>
        <mxCell id="chNMWuW00oCalH_OXdsF-3" value="HIR" style="rounded=0;whiteSpace=wrap;html=1;" parent="1" vertex="1">
          <mxGeometry x="440" y="650" width="120" height="60" as="geometry" />
        </mxCell>
        <mxCell id="chNMWuW00oCalH_OXdsF-14" style="edgeStyle=orthogonalEdgeStyle;rounded=0;orthogonalLoop=1;jettySize=auto;html=1;exitX=0.5;exitY=1;exitDx=0;exitDy=0;entryX=0.5;entryY=0;entryDx=0;entryDy=0;" parent="1" source="chNMWuW00oCalH_OXdsF-4" target="chNMWuW00oCalH_OXdsF-6" edge="1">
          <mxGeometry relative="1" as="geometry" />
        </mxCell>
        <mxCell id="chNMWuW00oCalH_OXdsF-4" value="HGraph" style="rounded=0;whiteSpace=wrap;html=1;" parent="1" vertex="1">
          <mxGeometry x="610" y="650" width="120" height="60" as="geometry" />
        </mxCell>
        <mxCell id="chNMWuW00oCalH_OXdsF-6" value="codegen" style="rounded=1;whiteSpace=wrap;html=1;fillColor=#fff2cc;strokeColor=#d6b656;" parent="1" vertex="1">
          <mxGeometry x="520" y="750" width="120" height="60" as="geometry" />
        </mxCell>
        <mxCell id="chNMWuW00oCalH_OXdsF-17" style="edgeStyle=orthogonalEdgeStyle;rounded=0;orthogonalLoop=1;jettySize=auto;html=1;exitX=1;exitY=0.5;exitDx=0;exitDy=0;entryX=0;entryY=0.5;entryDx=0;entryDy=0;" parent="1" source="chNMWuW00oCalH_OXdsF-7" target="chNMWuW00oCalH_OXdsF-8" edge="1">
          <mxGeometry relative="1" as="geometry" />
        </mxCell>
        <mxCell id="chNMWuW00oCalH_OXdsF-7" value="assembler" style="rounded=1;whiteSpace=wrap;html=1;fillColor=#dae8fc;strokeColor=#6c8ebf;" parent="1" vertex="1">
          <mxGeometry x="450" y="840" width="120" height="60" as="geometry" />
        </mxCell>
        <mxCell id="chNMWuW00oCalH_OXdsF-19" style="edgeStyle=orthogonalEdgeStyle;rounded=0;orthogonalLoop=1;jettySize=auto;html=1;exitX=0.5;exitY=1;exitDx=0;exitDy=0;entryX=0.5;entryY=0;entryDx=0;entryDy=0;" parent="1" source="chNMWuW00oCalH_OXdsF-8" target="chNMWuW00oCalH_OXdsF-18" edge="1">
          <mxGeometry relative="1" as="geometry" />
        </mxCell>
        <mxCell id="chNMWuW00oCalH_OXdsF-8" value="linker" style="rounded=1;whiteSpace=wrap;html=1;fillColor=#e1d5e7;strokeColor=#9673a6;" parent="1" vertex="1">
          <mxGeometry x="600" y="840" width="120" height="60" as="geometry" />
        </mxCell>
        <mxCell id="chNMWuW00oCalH_OXdsF-16" value="" style="endArrow=classic;html=1;rounded=0;exitX=0.5;exitY=1;exitDx=0;exitDy=0;entryX=0.5;entryY=0;entryDx=0;entryDy=0;" parent="1" source="chNMWuW00oCalH_OXdsF-6" target="chNMWuW00oCalH_OXdsF-7" edge="1">
          <mxGeometry width="50" height="50" relative="1" as="geometry">
            <mxPoint x="420" y="710" as="sourcePoint" />
            <mxPoint x="470" y="660" as="targetPoint" />
          </mxGeometry>
        </mxCell>
        <mxCell id="chNMWuW00oCalH_OXdsF-18" value="cpu" style="shape=ext;double=1;rounded=0;whiteSpace=wrap;html=1;fillColor=#ffe6cc;strokeColor=#d79b00;" parent="1" vertex="1">
          <mxGeometry x="622.5" y="930" width="75" height="50" as="geometry" />
        </mxCell>
        <mxCell id="chNMWuW00oCalH_OXdsF-20" value="" style="rounded=0;whiteSpace=wrap;html=1;strokeWidth=2;" parent="1" vertex="1">
          <mxGeometry x="930" y="90" width="610" height="310" as="geometry" />
        </mxCell>
        <mxCell id="chNMWuW00oCalH_OXdsF-28" style="edgeStyle=orthogonalEdgeStyle;rounded=0;orthogonalLoop=1;jettySize=auto;html=1;exitX=0.75;exitY=0;exitDx=0;exitDy=0;entryX=0.75;entryY=1;entryDx=0;entryDy=0;strokeWidth=2;" parent="1" source="chNMWuW00oCalH_OXdsF-21" target="chNMWuW00oCalH_OXdsF-26" edge="1">
          <mxGeometry relative="1" as="geometry" />
        </mxCell>
        <mxCell id="chNMWuW00oCalH_OXdsF-21" value="GC" style="rounded=0;whiteSpace=wrap;html=1;strokeWidth=2;" parent="1" vertex="1">
          <mxGeometry x="1420" y="340" width="120" height="60" as="geometry" />
        </mxCell>
        <mxCell id="chNMWuW00oCalH_OXdsF-24" style="edgeStyle=orthogonalEdgeStyle;rounded=0;orthogonalLoop=1;jettySize=auto;html=1;exitX=0.25;exitY=1;exitDx=0;exitDy=0;entryX=0.25;entryY=0;entryDx=0;entryDy=0;strokeWidth=2;" parent="1" source="chNMWuW00oCalH_OXdsF-22" target="chNMWuW00oCalH_OXdsF-29" edge="1">
          <mxGeometry relative="1" as="geometry">
            <mxPoint x="1330" y="440" as="targetPoint" />
          </mxGeometry>
        </mxCell>
        <mxCell id="chNMWuW00oCalH_OXdsF-22" value="JNI" style="rounded=0;whiteSpace=wrap;html=1;strokeWidth=2;" parent="1" vertex="1">
          <mxGeometry x="1300" y="250" width="120" height="60" as="geometry" />
        </mxCell>
        <mxCell id="chNMWuW00oCalH_OXdsF-25" style="edgeStyle=orthogonalEdgeStyle;rounded=0;orthogonalLoop=1;jettySize=auto;html=1;exitX=0.75;exitY=0;exitDx=0;exitDy=0;entryX=0.75;entryY=1;entryDx=0;entryDy=0;strokeWidth=2;" parent="1" source="chNMWuW00oCalH_OXdsF-29" target="chNMWuW00oCalH_OXdsF-22" edge="1">
          <mxGeometry relative="1" as="geometry">
            <mxPoint x="1390" y="440" as="sourcePoint" />
          </mxGeometry>
        </mxCell>
        <mxCell id="chNMWuW00oCalH_OXdsF-27" style="edgeStyle=orthogonalEdgeStyle;rounded=0;orthogonalLoop=1;jettySize=auto;html=1;exitX=0.25;exitY=1;exitDx=0;exitDy=0;entryX=0.25;entryY=0;entryDx=0;entryDy=0;strokeWidth=2;" parent="1" source="chNMWuW00oCalH_OXdsF-26" target="chNMWuW00oCalH_OXdsF-21" edge="1">
          <mxGeometry relative="1" as="geometry" />
        </mxCell>
        <mxCell id="chNMWuW00oCalH_OXdsF-26" value="JIT Cache" style="rounded=0;whiteSpace=wrap;html=1;strokeWidth=2;" parent="1" vertex="1">
          <mxGeometry x="1420" y="250" width="120" height="60" as="geometry" />
        </mxCell>
        <mxCell id="chNMWuW00oCalH_OXdsF-31" style="edgeStyle=orthogonalEdgeStyle;rounded=0;orthogonalLoop=1;jettySize=auto;html=1;exitX=0.25;exitY=1;exitDx=0;exitDy=0;entryX=0.25;entryY=0;entryDx=0;entryDy=0;strokeWidth=2;" parent="1" source="chNMWuW00oCalH_OXdsF-29" target="chNMWuW00oCalH_OXdsF-30" edge="1">
          <mxGeometry relative="1" as="geometry" />
        </mxCell>
        <mxCell id="chNMWuW00oCalH_OXdsF-29" value="JNI trampoline" style="rounded=0;whiteSpace=wrap;html=1;strokeWidth=2;" parent="1" vertex="1">
          <mxGeometry x="1300" y="340" width="120" height="60" as="geometry" />
        </mxCell>
        <mxCell id="chNMWuW00oCalH_OXdsF-32" style="edgeStyle=orthogonalEdgeStyle;rounded=0;orthogonalLoop=1;jettySize=auto;html=1;exitX=0.75;exitY=0;exitDx=0;exitDy=0;entryX=0.75;entryY=1;entryDx=0;entryDy=0;strokeWidth=2;" parent="1" source="chNMWuW00oCalH_OXdsF-30" target="chNMWuW00oCalH_OXdsF-29" edge="1">
          <mxGeometry relative="1" as="geometry" />
        </mxCell>
        <mxCell id="chNMWuW00oCalH_OXdsF-30" value="libnative.so" style="rounded=1;whiteSpace=wrap;html=1;strokeWidth=2;" parent="1" vertex="1">
          <mxGeometry x="1300" y="440" width="120" height="60" as="geometry" />
        </mxCell>
        <mxCell id="chNMWuW00oCalH_OXdsF-35" style="edgeStyle=orthogonalEdgeStyle;rounded=0;orthogonalLoop=1;jettySize=auto;html=1;exitX=1;exitY=0.25;exitDx=0;exitDy=0;entryX=0;entryY=0.25;entryDx=0;entryDy=0;strokeWidth=2;" parent="1" source="chNMWuW00oCalH_OXdsF-33" target="chNMWuW00oCalH_OXdsF-34" edge="1">
          <mxGeometry relative="1" as="geometry" />
        </mxCell>
        <mxCell id="chNMWuW00oCalH_OXdsF-33" value="JVMTI" style="rounded=0;whiteSpace=wrap;html=1;strokeWidth=2;" parent="1" vertex="1">
          <mxGeometry x="1420" y="170" width="120" height="60" as="geometry" />
        </mxCell>
        <mxCell id="chNMWuW00oCalH_OXdsF-36" style="edgeStyle=orthogonalEdgeStyle;rounded=0;orthogonalLoop=1;jettySize=auto;html=1;exitX=0;exitY=0.75;exitDx=0;exitDy=0;entryX=1;entryY=0.75;entryDx=0;entryDy=0;strokeWidth=2;" parent="1" source="chNMWuW00oCalH_OXdsF-34" target="chNMWuW00oCalH_OXdsF-33" edge="1">
          <mxGeometry relative="1" as="geometry" />
        </mxCell>
        <mxCell id="chNMWuW00oCalH_OXdsF-34" value="libInstrument.so" style="rounded=1;whiteSpace=wrap;html=1;strokeWidth=2;" parent="1" vertex="1">
          <mxGeometry x="1580" y="170" width="120" height="60" as="geometry" />
        </mxCell>
        <mxCell id="chNMWuW00oCalH_OXdsF-47" style="edgeStyle=orthogonalEdgeStyle;rounded=0;orthogonalLoop=1;jettySize=auto;html=1;exitX=0.25;exitY=1;exitDx=0;exitDy=0;entryX=0.25;entryY=0;entryDx=0;entryDy=0;strokeWidth=2;" parent="1" source="chNMWuW00oCalH_OXdsF-37" target="chNMWuW00oCalH_OXdsF-45" edge="1">
          <mxGeometry relative="1" as="geometry" />
        </mxCell>
        <mxCell id="chNMWuW00oCalH_OXdsF-37" value="fault handler" style="rounded=0;whiteSpace=wrap;html=1;strokeWidth=2;" parent="1" vertex="1">
          <mxGeometry x="960" y="200" width="120" height="60" as="geometry" />
        </mxCell>
        <mxCell id="chNMWuW00oCalH_OXdsF-38" value="debug interface" style="rounded=0;whiteSpace=wrap;html=1;strokeWidth=2;" parent="1" vertex="1">
          <mxGeometry x="1150" y="340" width="120" height="60" as="geometry" />
        </mxCell>
        <mxCell id="chNMWuW00oCalH_OXdsF-40" value="memory allocator" style="rounded=0;whiteSpace=wrap;html=1;strokeWidth=2;" parent="1" vertex="1">
          <mxGeometry x="1150" y="280" width="120" height="60" as="geometry" />
        </mxCell>
        <mxCell id="chNMWuW00oCalH_OXdsF-42" value="" style="outlineConnect=0;dashed=0;verticalLabelPosition=bottom;verticalAlign=top;align=center;html=1;shape=mxgraph.aws3.android;fillColor=#96BF3D;gradientColor=none;strokeWidth=2;" parent="1" vertex="1">
          <mxGeometry x="983.25" y="-20" width="73.5" height="84" as="geometry" />
        </mxCell>
        <mxCell id="chNMWuW00oCalH_OXdsF-44" value="" style="endArrow=classic;html=1;rounded=0;entryX=0.25;entryY=0;entryDx=0;entryDy=0;strokeWidth=2;" parent="1" edge="1">
          <mxGeometry width="50" height="50" relative="1" as="geometry">
            <mxPoint x="1019.58" y="70" as="sourcePoint" />
            <mxPoint x="1019.58" y="200" as="targetPoint" />
          </mxGeometry>
        </mxCell>
        <mxCell id="chNMWuW00oCalH_OXdsF-48" style="edgeStyle=orthogonalEdgeStyle;rounded=0;orthogonalLoop=1;jettySize=auto;html=1;exitX=0.75;exitY=0;exitDx=0;exitDy=0;entryX=0.75;entryY=1;entryDx=0;entryDy=0;strokeWidth=2;" parent="1" source="chNMWuW00oCalH_OXdsF-45" target="chNMWuW00oCalH_OXdsF-37" edge="1">
          <mxGeometry relative="1" as="geometry" />
        </mxCell>
        <mxCell id="chNMWuW00oCalH_OXdsF-45" value="bionic" style="rounded=1;whiteSpace=wrap;html=1;strokeWidth=2;" parent="1" vertex="1">
          <mxGeometry x="960" y="450" width="120" height="60" as="geometry" />
        </mxCell>
        <mxCell id="chNMWuW00oCalH_OXdsF-49" value="&lt;font style=&quot;font-size: 14px;&quot;&gt;android runtime&lt;/font&gt;" style="text;html=1;align=center;verticalAlign=middle;resizable=0;points=[];autosize=1;strokeColor=none;fillColor=none;strokeWidth=2;" parent="1" vertex="1">
          <mxGeometry x="1175" y="110" width="120" height="30" as="geometry" />
        </mxCell>
        <mxCell id="RDsM8FFO-aaUckPy7jzi-8" style="edgeStyle=orthogonalEdgeStyle;rounded=0;orthogonalLoop=1;jettySize=auto;html=1;exitX=0.5;exitY=1;exitDx=0;exitDy=0;entryX=0.5;entryY=0;entryDx=0;entryDy=0;strokeWidth=2;" parent="1" source="RDsM8FFO-aaUckPy7jzi-1" target="RDsM8FFO-aaUckPy7jzi-6" edge="1">
          <mxGeometry relative="1" as="geometry" />
        </mxCell>
        <mxCell id="RDsM8FFO-aaUckPy7jzi-1" value="HGraph&lt;div&gt;(constant_folding)&lt;/div&gt;" style="rounded=0;whiteSpace=wrap;html=1;strokeWidth=2;" parent="1" vertex="1">
          <mxGeometry x="1302.5" y="700" width="120" height="60" as="geometry" />
        </mxCell>
        <mxCell id="RDsM8FFO-aaUckPy7jzi-30" style="edgeStyle=orthogonalEdgeStyle;rounded=0;orthogonalLoop=1;jettySize=auto;html=1;exitX=0.5;exitY=1;exitDx=0;exitDy=0;entryX=0.5;entryY=0;entryDx=0;entryDy=0;strokeWidth=2;" parent="1" source="RDsM8FFO-aaUckPy7jzi-2" target="RDsM8FFO-aaUckPy7jzi-3" edge="1">
          <mxGeometry relative="1" as="geometry" />
        </mxCell>
        <mxCell id="RDsM8FFO-aaUckPy7jzi-2" value="HBlock1" style="rounded=0;whiteSpace=wrap;html=1;strokeWidth=2;" parent="1" vertex="1">
          <mxGeometry x="1674.01" y="685" width="100" height="50" as="geometry" />
        </mxCell>
        <mxCell id="RDsM8FFO-aaUckPy7jzi-70" style="edgeStyle=orthogonalEdgeStyle;rounded=0;orthogonalLoop=1;jettySize=auto;html=1;exitX=0.5;exitY=1;exitDx=0;exitDy=0;entryX=0.5;entryY=0;entryDx=0;entryDy=0;strokeWidth=2;" parent="1" source="RDsM8FFO-aaUckPy7jzi-3" target="RDsM8FFO-aaUckPy7jzi-38" edge="1">
          <mxGeometry relative="1" as="geometry" />
        </mxCell>
        <mxCell id="RDsM8FFO-aaUckPy7jzi-3" value="HBlock2" style="rounded=0;whiteSpace=wrap;html=1;fillColor=#d5e8d4;strokeColor=#82b366;strokeWidth=2;" parent="1" vertex="1">
          <mxGeometry x="1674.01" y="825" width="100" height="50" as="geometry" />
        </mxCell>
        <mxCell id="RDsM8FFO-aaUckPy7jzi-13" style="edgeStyle=orthogonalEdgeStyle;rounded=0;orthogonalLoop=1;jettySize=auto;html=1;entryX=0.5;entryY=0;entryDx=0;entryDy=0;exitX=0.5;exitY=1;exitDx=0;exitDy=0;strokeWidth=2;" parent="1" source="RDsM8FFO-aaUckPy7jzi-46" target="RDsM8FFO-aaUckPy7jzi-11" edge="1">
          <mxGeometry relative="1" as="geometry">
            <mxPoint x="980" y="910" as="sourcePoint" />
          </mxGeometry>
        </mxCell>
        <mxCell id="RDsM8FFO-aaUckPy7jzi-47" style="edgeStyle=orthogonalEdgeStyle;rounded=0;orthogonalLoop=1;jettySize=auto;html=1;exitX=0.5;exitY=1;exitDx=0;exitDy=0;entryX=0.5;entryY=0;entryDx=0;entryDy=0;strokeWidth=2;" parent="1" source="RDsM8FFO-aaUckPy7jzi-4" target="RDsM8FFO-aaUckPy7jzi-46" edge="1">
          <mxGeometry relative="1" as="geometry" />
        </mxCell>
        <mxCell id="RDsM8FFO-aaUckPy7jzi-4" value="JIT Optimizer" style="rounded=0;whiteSpace=wrap;html=1;fillColor=#fff2cc;strokeColor=#d6b656;strokeWidth=2;" parent="1" vertex="1">
          <mxGeometry x="921" y="790" width="120" height="60" as="geometry" />
        </mxCell>
        <mxCell id="RDsM8FFO-aaUckPy7jzi-9" style="edgeStyle=orthogonalEdgeStyle;rounded=0;orthogonalLoop=1;jettySize=auto;html=1;exitX=0.5;exitY=1;exitDx=0;exitDy=0;entryX=0.5;entryY=0;entryDx=0;entryDy=0;strokeWidth=2;" parent="1" source="RDsM8FFO-aaUckPy7jzi-6" target="RDsM8FFO-aaUckPy7jzi-7" edge="1">
          <mxGeometry relative="1" as="geometry" />
        </mxCell>
        <mxCell id="RDsM8FFO-aaUckPy7jzi-6" value="HGraph&lt;div&gt;dead code elimination&lt;/div&gt;" style="rounded=0;whiteSpace=wrap;html=1;strokeWidth=2;" parent="1" vertex="1">
          <mxGeometry x="1302.5" y="780" width="120" height="60" as="geometry" />
        </mxCell>
        <mxCell id="RDsM8FFO-aaUckPy7jzi-28" style="edgeStyle=orthogonalEdgeStyle;rounded=0;orthogonalLoop=1;jettySize=auto;html=1;exitX=0.5;exitY=1;exitDx=0;exitDy=0;entryX=0.5;entryY=0;entryDx=0;entryDy=0;strokeWidth=2;" parent="1" source="RDsM8FFO-aaUckPy7jzi-7" target="RDsM8FFO-aaUckPy7jzi-27" edge="1">
          <mxGeometry relative="1" as="geometry" />
        </mxCell>
        <mxCell id="RDsM8FFO-aaUckPy7jzi-7" value="HGraph&lt;div&gt;(... ...)&lt;/div&gt;" style="rounded=0;whiteSpace=wrap;html=1;strokeWidth=2;" parent="1" vertex="1">
          <mxGeometry x="1302.5" y="860" width="120" height="60" as="geometry" />
        </mxCell>
        <mxCell id="RDsM8FFO-aaUckPy7jzi-12" style="edgeStyle=orthogonalEdgeStyle;rounded=0;orthogonalLoop=1;jettySize=auto;html=1;exitX=0.5;exitY=1;exitDx=0;exitDy=0;entryX=0.5;entryY=0;entryDx=0;entryDy=0;strokeWidth=2;" parent="1" source="RDsM8FFO-aaUckPy7jzi-10" target="RDsM8FFO-aaUckPy7jzi-4" edge="1">
          <mxGeometry relative="1" as="geometry" />
        </mxCell>
        <mxCell id="RDsM8FFO-aaUckPy7jzi-10" value="Java Program" style="rounded=0;whiteSpace=wrap;html=1;strokeWidth=2;" parent="1" vertex="1">
          <mxGeometry x="921" y="690" width="120" height="60" as="geometry" />
        </mxCell>
        <mxCell id="RDsM8FFO-aaUckPy7jzi-11" value="assembly" style="rounded=0;whiteSpace=wrap;html=1;strokeWidth=2;" parent="1" vertex="1">
          <mxGeometry x="921" y="980" width="120" height="60" as="geometry" />
        </mxCell>
        <mxCell id="RDsM8FFO-aaUckPy7jzi-23" style="rounded=0;orthogonalLoop=1;jettySize=auto;html=1;exitX=1;exitY=0;exitDx=0;exitDy=0;entryX=0;entryY=0;entryDx=0;entryDy=0;dashed=1;strokeColor=none;strokeWidth=2;" parent="1" source="RDsM8FFO-aaUckPy7jzi-15" target="RDsM8FFO-aaUckPy7jzi-1" edge="1">
          <mxGeometry relative="1" as="geometry" />
        </mxCell>
        <mxCell id="RDsM8FFO-aaUckPy7jzi-15" value="Java MethodA" style="rounded=0;whiteSpace=wrap;html=1;strokeWidth=2;" parent="1" vertex="1">
          <mxGeometry x="1101.5" y="740" width="120" height="60" as="geometry" />
        </mxCell>
        <mxCell id="RDsM8FFO-aaUckPy7jzi-16" value="Java MethodB" style="rounded=0;whiteSpace=wrap;html=1;fillColor=#f5f5f5;fontColor=#333333;strokeColor=#666666;strokeWidth=2;" parent="1" vertex="1">
          <mxGeometry x="1101.5" y="820" width="120" height="60" as="geometry" />
        </mxCell>
        <mxCell id="RDsM8FFO-aaUckPy7jzi-17" value="... ..." style="rounded=0;whiteSpace=wrap;html=1;strokeWidth=2;" parent="1" vertex="1">
          <mxGeometry x="1100.5" y="900" width="120" height="60" as="geometry" />
        </mxCell>
        <mxCell id="RDsM8FFO-aaUckPy7jzi-19" value="" style="endArrow=none;dashed=1;html=1;rounded=0;exitX=1;exitY=0;exitDx=0;exitDy=0;entryX=0;entryY=0.067;entryDx=0;entryDy=0;entryPerimeter=0;strokeWidth=1;" parent="1" source="RDsM8FFO-aaUckPy7jzi-4" target="RDsM8FFO-aaUckPy7jzi-22" edge="1">
          <mxGeometry width="50" height="50" relative="1" as="geometry">
            <mxPoint x="1141" y="680" as="sourcePoint" />
            <mxPoint x="1191" y="630" as="targetPoint" />
          </mxGeometry>
        </mxCell>
        <mxCell id="RDsM8FFO-aaUckPy7jzi-20" value="" style="endArrow=none;dashed=1;html=1;rounded=0;exitX=1;exitY=1;exitDx=0;exitDy=0;entryX=0;entryY=0.939;entryDx=0;entryDy=0;entryPerimeter=0;strokeWidth=1;" parent="1" source="RDsM8FFO-aaUckPy7jzi-4" target="RDsM8FFO-aaUckPy7jzi-22" edge="1">
          <mxGeometry width="50" height="50" relative="1" as="geometry">
            <mxPoint x="1141" y="680" as="sourcePoint" />
            <mxPoint x="1191" y="630" as="targetPoint" />
          </mxGeometry>
        </mxCell>
        <mxCell id="RDsM8FFO-aaUckPy7jzi-24" value="" style="endArrow=none;dashed=1;html=1;rounded=0;exitX=1;exitY=0;exitDx=0;exitDy=0;entryX=0.004;entryY=0.053;entryDx=0;entryDy=0;entryPerimeter=0;strokeWidth=1;" parent="1" source="RDsM8FFO-aaUckPy7jzi-16" target="RDsM8FFO-aaUckPy7jzi-25" edge="1">
          <mxGeometry width="50" height="50" relative="1" as="geometry">
            <mxPoint x="1400" y="720" as="sourcePoint" />
            <mxPoint x="1380" y="660" as="targetPoint" />
          </mxGeometry>
        </mxCell>
        <mxCell id="RDsM8FFO-aaUckPy7jzi-26" value="" style="endArrow=none;dashed=1;html=1;rounded=0;exitX=1;exitY=1;exitDx=0;exitDy=0;entryX=0.013;entryY=0.954;entryDx=0;entryDy=0;entryPerimeter=0;strokeWidth=1;" parent="1" source="RDsM8FFO-aaUckPy7jzi-16" target="RDsM8FFO-aaUckPy7jzi-25" edge="1">
          <mxGeometry width="50" height="50" relative="1" as="geometry">
            <mxPoint x="1251" y="760" as="sourcePoint" />
            <mxPoint x="1426" y="628" as="targetPoint" />
          </mxGeometry>
        </mxCell>
        <mxCell id="RDsM8FFO-aaUckPy7jzi-27" value="HGraph&lt;div&gt;(final)&lt;/div&gt;" style="rounded=0;whiteSpace=wrap;html=1;fillColor=#dae8fc;strokeColor=#6c8ebf;strokeWidth=2;" parent="1" vertex="1">
          <mxGeometry x="1302.5" y="940" width="120" height="60" as="geometry" />
        </mxCell>
        <mxCell id="RDsM8FFO-aaUckPy7jzi-38" value="HBlock3" style="rounded=0;whiteSpace=wrap;html=1;strokeWidth=2;" parent="1" vertex="1">
          <mxGeometry x="1674.01" y="990" width="100" height="50" as="geometry" />
        </mxCell>
        <mxCell id="RDsM8FFO-aaUckPy7jzi-43" value="" style="endArrow=none;dashed=1;html=1;rounded=0;exitX=1;exitY=0;exitDx=0;exitDy=0;entryX=0.004;entryY=0.066;entryDx=0;entryDy=0;entryPerimeter=0;strokeWidth=1;" parent="1" source="RDsM8FFO-aaUckPy7jzi-27" target="RDsM8FFO-aaUckPy7jzi-42" edge="1">
          <mxGeometry width="50" height="50" relative="1" as="geometry">
            <mxPoint x="1251" y="760" as="sourcePoint" />
            <mxPoint x="1371" y="639" as="targetPoint" />
          </mxGeometry>
        </mxCell>
        <mxCell id="RDsM8FFO-aaUckPy7jzi-44" value="" style="endArrow=none;dashed=1;html=1;rounded=0;exitX=1;exitY=1;exitDx=0;exitDy=0;entryX=0.008;entryY=0.953;entryDx=0;entryDy=0;entryPerimeter=0;strokeWidth=1;" parent="1" source="RDsM8FFO-aaUckPy7jzi-27" target="RDsM8FFO-aaUckPy7jzi-42" edge="1">
          <mxGeometry width="50" height="50" relative="1" as="geometry">
            <mxPoint x="1505" y="730" as="sourcePoint" />
            <mxPoint x="1591" y="590" as="targetPoint" />
          </mxGeometry>
        </mxCell>
        <mxCell id="RDsM8FFO-aaUckPy7jzi-46" value="Codegen" style="rounded=0;whiteSpace=wrap;html=1;fillColor=#ffe6cc;strokeColor=#d79b00;strokeWidth=2;" parent="1" vertex="1">
          <mxGeometry x="921" y="885" width="120" height="60" as="geometry" />
        </mxCell>
        <mxCell id="RDsM8FFO-aaUckPy7jzi-51" value="&lt;div&gt;String s = &quot;Android&quot;;&lt;/div&gt;&lt;div&gt;&lt;span style=&quot;background-color: initial;&quot;&gt;String r = &quot;&quot;;&lt;/span&gt;&lt;/div&gt;" style="shape=note;whiteSpace=wrap;html=1;backgroundOutline=1;darkOpacity=0.05;size=15;strokeWidth=2;" parent="1" vertex="1">
          <mxGeometry x="1530" y="678.75" width="90" height="75" as="geometry" />
        </mxCell>
        <mxCell id="RDsM8FFO-aaUckPy7jzi-52" value="&lt;div&gt;for (int i = 0;&amp;nbsp;&lt;/div&gt;&lt;div&gt;i &amp;lt; s.length();&lt;/div&gt;&lt;div&gt;i++) {&lt;/div&gt;&lt;div&gt;&lt;span style=&quot;background-color: initial;&quot;&gt;ch = s.charAt(i);&lt;/span&gt;&lt;/div&gt;&lt;div&gt;&lt;span style=&quot;background-color: initial;&quot;&gt;r = ch + r;&lt;/span&gt;&lt;span style=&quot;background-color: initial;&quot;&gt;}&lt;/span&gt;&lt;/div&gt;" style="shape=note;whiteSpace=wrap;html=1;backgroundOutline=1;darkOpacity=0.05;size=15;fillColor=#d5e8d4;strokeColor=#82b366;strokeWidth=2;" parent="1" vertex="1">
          <mxGeometry x="1521" y="780" width="116" height="172.5" as="geometry" />
        </mxCell>
        <mxCell id="RDsM8FFO-aaUckPy7jzi-53" value="System.out.println(r);" style="shape=note;whiteSpace=wrap;html=1;backgroundOutline=1;darkOpacity=0.05;size=15;strokeWidth=2;" parent="1" vertex="1">
          <mxGeometry x="1514" y="985" width="130" height="55" as="geometry" />
        </mxCell>
        <mxCell id="RDsM8FFO-aaUckPy7jzi-54" value="&lt;span style=&quot;text-align: left;&quot;&gt;ParallelMove&lt;/span&gt;" style="rounded=0;whiteSpace=wrap;html=1;strokeWidth=2;" parent="1" vertex="1">
          <mxGeometry x="1860" y="732.5" width="170" height="40" as="geometry" />
        </mxCell>
        <mxCell id="RDsM8FFO-aaUckPy7jzi-55" value="&lt;div style=&quot;text-align: left;&quot;&gt;&lt;span style=&quot;background-color: initial;&quot;&gt;ArrayGet&lt;/span&gt;&lt;/div&gt;" style="rounded=0;whiteSpace=wrap;html=1;strokeWidth=2;" parent="1" vertex="1">
          <mxGeometry x="1860" y="772.5" width="170" height="40" as="geometry" />
        </mxCell>
        <mxCell id="RDsM8FFO-aaUckPy7jzi-56" value="&lt;div style=&quot;text-align: left;&quot;&gt;ParallelMove&lt;br&gt;&lt;/div&gt;" style="rounded=0;whiteSpace=wrap;html=1;strokeWidth=2;" parent="1" vertex="1">
          <mxGeometry x="1860" y="812.5" width="170" height="40" as="geometry" />
        </mxCell>
        <mxCell id="RDsM8FFO-aaUckPy7jzi-57" value="&lt;div style=&quot;text-align: left;&quot;&gt;StringBuilderAppend&lt;br&gt;&lt;/div&gt;" style="rounded=0;whiteSpace=wrap;html=1;strokeWidth=2;" parent="1" vertex="1">
          <mxGeometry x="1860" y="852.5" width="170" height="40" as="geometry" />
        </mxCell>
        <mxCell id="RDsM8FFO-aaUckPy7jzi-58" value="&lt;div style=&quot;text-align: left;&quot;&gt;Add&lt;br&gt;&lt;/div&gt;" style="rounded=0;whiteSpace=wrap;html=1;strokeWidth=2;" parent="1" vertex="1">
          <mxGeometry x="1860" y="892.5" width="170" height="40" as="geometry" />
        </mxCell>
        <mxCell id="RDsM8FFO-aaUckPy7jzi-59" value="&lt;div style=&quot;text-align: left;&quot;&gt;ParallelMove&lt;br&gt;&lt;/div&gt;" style="rounded=0;whiteSpace=wrap;html=1;strokeWidth=2;" parent="1" vertex="1">
          <mxGeometry x="1860" y="932.5" width="170" height="40" as="geometry" />
        </mxCell>
        <mxCell id="RDsM8FFO-aaUckPy7jzi-60" value="&lt;div style=&quot;text-align: left;&quot;&gt;Goto&lt;br&gt;&lt;/div&gt;" style="rounded=0;whiteSpace=wrap;html=1;strokeWidth=2;" parent="1" vertex="1">
          <mxGeometry x="1860" y="972.5" width="170" height="40" as="geometry" />
        </mxCell>
        <mxCell id="RDsM8FFO-aaUckPy7jzi-62" value="" style="endArrow=none;dashed=1;html=1;rounded=0;entryX=1;entryY=0;entryDx=0;entryDy=0;exitX=-0.004;exitY=0.09;exitDx=0;exitDy=0;exitPerimeter=0;strokeWidth=1;" parent="1" source="RDsM8FFO-aaUckPy7jzi-61" target="RDsM8FFO-aaUckPy7jzi-3" edge="1">
          <mxGeometry width="50" height="50" relative="1" as="geometry">
            <mxPoint x="1510" y="850" as="sourcePoint" />
            <mxPoint x="1560" y="800" as="targetPoint" />
          </mxGeometry>
        </mxCell>
        <mxCell id="RDsM8FFO-aaUckPy7jzi-63" value="" style="endArrow=none;dashed=1;html=1;rounded=0;entryX=1;entryY=1;entryDx=0;entryDy=0;exitX=0.004;exitY=0.942;exitDx=0;exitDy=0;exitPerimeter=0;strokeWidth=1;" parent="1" source="RDsM8FFO-aaUckPy7jzi-61" target="RDsM8FFO-aaUckPy7jzi-3" edge="1">
          <mxGeometry width="50" height="50" relative="1" as="geometry">
            <mxPoint x="1869" y="689" as="sourcePoint" />
            <mxPoint x="1774.0100000000002" y="945" as="targetPoint" />
          </mxGeometry>
        </mxCell>
        <mxCell id="RDsM8FFO-aaUckPy7jzi-64" value="&lt;font style=&quot;font-size: 13px;&quot;&gt;HIR&lt;/font&gt;" style="text;html=1;align=center;verticalAlign=middle;whiteSpace=wrap;rounded=0;strokeWidth=2;" parent="1" vertex="1">
          <mxGeometry x="1915" y="700" width="60" height="30" as="geometry" />
        </mxCell>
        <mxCell id="RDsM8FFO-aaUckPy7jzi-69" style="edgeStyle=orthogonalEdgeStyle;rounded=0;orthogonalLoop=1;jettySize=auto;html=1;exitX=0.25;exitY=1;exitDx=0;exitDy=0;entryX=0;entryY=0.5;entryDx=0;entryDy=0;strokeWidth=2;" parent="1" source="RDsM8FFO-aaUckPy7jzi-3" target="RDsM8FFO-aaUckPy7jzi-3" edge="1">
          <mxGeometry relative="1" as="geometry">
            <Array as="points">
              <mxPoint x="1699" y="910" />
              <mxPoint x="1650" y="910" />
              <mxPoint x="1650" y="850" />
            </Array>
          </mxGeometry>
        </mxCell>
        <mxCell id="RDsM8FFO-aaUckPy7jzi-71" value="&lt;div&gt;move $s4, $a0&lt;/div&gt;&lt;div&gt;&lt;br&gt;&lt;/div&gt;&lt;div&gt;ld.w $t7, $a2, 8&lt;/div&gt;&lt;div&gt;bstrpick.d $t7, $t7, 0, 0&lt;/div&gt;&lt;div&gt;bnez $t7, 16 (addr 0x78)&lt;/div&gt;&lt;div&gt;add.d $t7, $a2, $s2&lt;/div&gt;&lt;div&gt;ld.bu a0, $t7, 16&lt;/div&gt;&lt;div&gt;b 12 (addr 0x80)&lt;/div&gt;&lt;div&gt;alsl.d $t7, $s2, $a2, 0&lt;/div&gt;&lt;div&gt;ld.hu $a0, $t7, 16&lt;/div&gt;&lt;div&gt;&lt;br&gt;&lt;/div&gt;&lt;div&gt;move $s5, $a2&lt;/div&gt;&lt;div&gt;st.w $s4, $sp, 12&lt;/div&gt;&lt;div&gt;st.w $a0, $sp, 8&lt;/div&gt;&lt;div&gt;&lt;br&gt;&lt;/div&gt;&lt;div&gt;li.w $a0, 0x36&lt;/div&gt;&lt;div&gt;ld.d $ra, $tr, 1520&lt;/div&gt;&lt;div&gt;jirl $ra, $ra, 0&lt;/div&gt;&lt;div&gt;&lt;br&gt;&lt;/div&gt;&lt;div&gt;addi.w $s2, $s2, 1 (0x1)&lt;/div&gt;&lt;div&gt;&lt;br&gt;&lt;/div&gt;&lt;div style=&quot;&quot;&gt;move $a2, $s5&lt;/div&gt;" style="rounded=0;whiteSpace=wrap;html=1;align=left;spacingLeft=22;strokeWidth=2;" parent="1" vertex="1">
          <mxGeometry x="2135" y="692.5" width="190" height="360" as="geometry" />
        </mxCell>
        <mxCell id="RDsM8FFO-aaUckPy7jzi-74" value="" style="endArrow=none;dashed=1;html=1;rounded=0;entryX=1;entryY=0;entryDx=0;entryDy=0;exitX=0;exitY=0.074;exitDx=0;exitDy=0;exitPerimeter=0;" parent="1" source="RDsM8FFO-aaUckPy7jzi-73" target="RDsM8FFO-aaUckPy7jzi-54" edge="1">
          <mxGeometry width="50" height="50" relative="1" as="geometry">
            <mxPoint x="1760" y="940" as="sourcePoint" />
            <mxPoint x="1810" y="890" as="targetPoint" />
          </mxGeometry>
        </mxCell>
        <mxCell id="RDsM8FFO-aaUckPy7jzi-75" value="" style="endArrow=none;dashed=1;html=1;rounded=0;entryX=1;entryY=1;entryDx=0;entryDy=0;exitX=0.011;exitY=0.947;exitDx=0;exitDy=0;exitPerimeter=0;" parent="1" source="RDsM8FFO-aaUckPy7jzi-73" target="RDsM8FFO-aaUckPy7jzi-60" edge="1">
          <mxGeometry width="50" height="50" relative="1" as="geometry">
            <mxPoint x="2120" y="700" as="sourcePoint" />
            <mxPoint x="2040" y="743" as="targetPoint" />
          </mxGeometry>
        </mxCell>
        <mxCell id="RDsM8FFO-aaUckPy7jzi-76" value="&lt;font style=&quot;font-size: 13px;&quot;&gt;ASSEMBLY&lt;/font&gt;" style="text;html=1;align=center;verticalAlign=middle;whiteSpace=wrap;rounded=0;strokeWidth=2;" parent="1" vertex="1">
          <mxGeometry x="2195" y="660" width="60" height="30" as="geometry" />
        </mxCell>
      </root>
    </mxGraphModel>
  </diagram>
</mxfile>
